HIERARCHY
ROOT Hips
{
  OFFSET -62.906 58.4239 -51.8212
  CHANNELS 6 Xposition Yposition Zposition Zrotation Xrotation Yrotation
  JOINT ToSpine
  {
    OFFSET -2.69724 7.43032 -0.144315
    CHANNELS 3 Zrotation Xrotation Yrotation
    JOINT Spine
    {
      OFFSET -0.0310711 10.7595 1.96963
      CHANNELS 3 Zrotation Xrotation Yrotation
      JOINT Spine1
      {
        OFFSET 13.1342 3.43533 0.764692
        CHANNELS 3 Zrotation Xrotation Yrotation
        JOINT Neck
        {
          OFFSET 29.8703 7.82586 -0.130764
          CHANNELS 3 Zrotation Xrotation Yrotation
          JOINT Head
          {
            OFFSET 9.52751 0.295786 -0.907742
            CHANNELS 3 Zrotation Xrotation Yrotation
            End Site
            {
              OFFSET 16.4037 0.713936 2.7358
            }
          }
        }
        JOINT LeftShoulder
        {
          OFFSET 27.5574 4.95586 2.47156
          CHANNELS 3 Zrotation Xrotation Yrotation
          JOINT LeftArm
          {
            OFFSET 1.20734 -0.998971 20.1238
            CHANNELS 3 Zrotation Xrotation Yrotation
            JOINT LeftForeArm
            {
              OFFSET 26.8049 -0.0536703 -0.155908
              CHANNELS 3 Zrotation Xrotation Yrotation
              JOINT LeftHand
              {
                OFFSET 26.6817 0 0.320147
                CHANNELS 3 Zrotation Xrotation Yrotation
                End Site
                {
                  OFFSET 18.6119 0 0.382219
                }
              }
            }
          }
        }
        JOINT RightShoulder
        {
          OFFSET 27.5927 4.71444 -2.65209
          CHANNELS 3 Zrotation Xrotation Yrotation
          JOINT RightArm
          {
            OFFSET 2.83739 -1.17114 -18.7564
            CHANNELS 3 Zrotation Xrotation Yrotation
            JOINT RightForeArm
            {
              OFFSET 28.839 -0.0548439 1.22491
              CHANNELS 3 Zrotation Xrotation Yrotation
              JOINT RightHand
              {
                OFFSET 26.5114 0 -0.101894
                CHANNELS 3 Zrotation Xrotation Yrotation
                End Site
                {
                  OFFSET 18.2168 0 0
                }
              }
            }
          }
        }
      }
    }
  }
  JOINT LeftUpLeg
  {
    OFFSET -4.76168 -1.9167 -10.2353
    CHANNELS 3 Zrotation Xrotation Yrotation
    JOINT LeftLeg
    {
      OFFSET 2.55951 -42.0585 -8.02213
      CHANNELS 3 Zrotation Xrotation Yrotation
      JOINT LeftFoot
      {
        OFFSET 3.16357 -42.5282 -3.95426
        CHANNELS 3 Zrotation Xrotation Yrotation
        JOINT LeftToeBase
        {
          OFFSET 0.346054 -6.02161 12.8035
          CHANNELS 3 Zrotation Xrotation Yrotation
          End Site
          {
            OFFSET 0.134235 -1.35082 5.13018
          }
        }
      }
    }
  }
  JOINT RightUpLeg
  {
    OFFSET -4.94151 -1.41743 10.6446
    CHANNELS 3 Zrotation Xrotation Yrotation
    JOINT RightLeg
    {
      OFFSET -2.56294 -42.0364 -7.94377
      CHANNELS 3 Zrotation Xrotation Yrotation
      JOINT RightFoot
      {
        OFFSET -3.0952 -42.555 -4.02241
        CHANNELS 3 Zrotation Xrotation Yrotation
        JOINT RightToeBase
        {
          OFFSET -0.0828122 -6.13587 12.8035
          CHANNELS 3 Zrotation Xrotation Yrotation
          End Site
          {
            OFFSET -0.131328 -1.35082 5.13018
          }
        }
      }
    }
  }
}
MOTION
Frames:	18
Frame Time:	0.0333333
-37.2775 74.7863 -31.353 45.4181 -10.7935 -15.1587 -70.1915 0 88.8779 122.682 68.3683 -34.0896 -7.62851 18.5939 10.8816 -151.907 30.6892 167.555 -138.888 69.81 -174.467 0.624067 -12.5449 -28.1755 -79.4257 54.4438 -72.7389 19.6786 -0.453686 -91.0891 0.420957 0.000575497 0.35866 -1.99719 5.83002 48.5856 -76.8388 -30.6906 69.0327 0.970963 -0.486788 65.8154 0.58676 0.000331214 0.0646655 -48.1216 0.348557 83.9999 -16.0705 75.8481 3.6743 -8.73674 -0.71588 0.929856 6.66659 -14.842 8.19208 -9.70953 -3.67542 72.468 145.746 80.6078 -132.579 -12.3175 -17.3836 1.22855 2.18124 -37.5275 -14.669 
-32.8737 77.4333 -27.8686 46.0978 -13.5516 -16.7307 -70.1915 0 88.8779 132.975 67.7242 -44.2392 -8.01033 20.9207 9.65596 -154.554 31.5197 168.268 -138.735 70.4534 -175.183 0.587998 -12.6427 -29.0081 -75.377 56.5764 -72.4088 19.9004 3.52627 -79.339 0.420957 0.000575497 0.35866 -1.89017 5.61471 48.0517 -80.8952 -27.0351 74.7047 8.20484 -1.96999 76.28 0.58676 0.000331214 0.0646655 -36.2585 -0.57735 86.1093 -80.0662 85.5006 69.684 -7.16953 -2.86117 0.446339 8.21948 -17.5626 13.3442 -18.8554 -0.712291 73.7384 80.4238 85.1414 -65.0463 -11.7458 -17.6271 1.2358 2.7445 -33.1442 -10.5302 
-28.5517 79.461 -24.303 46.2332 -15.6556 -18.6553 -70.1915 0 88.8779 138.664 66.8887 -51.4805 -8.14378 22.3715 9.253 -156.651 31.5745 167.955 -136.578 70.0854 -177.767 0.614467 -12.5612 -28.4412 -70.9814 58.7077 -70.0187 19.5089 7.67832 -68.817 0.420957 0.000575497 0.35866 -1.71098 5.73273 44.5391 -82.7968 -26.7193 84.1464 11.0374 0.242644 91.3169 0.58676 0.000331214 0.0646655 -21.1516 -1.32269 87.5511 -153.107 79.2458 146.906 -4.5932 -6.90564 -0.322266 9.43109 -19.3188 16.6738 -27.496 1.04584 75.1336 25.356 79.4146 -7.02901 -13.0327 -17.3548 1.21245 2.62284 -31.3156 -11.1997 
-24.2261 80.362 -20.7058 44.1682 -17.4356 -21.1564 -70.1915 0 88.8779 139.254 67.852 -53.7882 -9.05774 23.6526 9.0674 -157.378 30.9881 166.278 -133.667 68.8312 178.226 0.64225 -12.5464 -27.5373 -67.3517 62.0028 -61.2245 16.3682 6.47671 -68.4401 0.420957 0.000575497 0.35866 -1.26416 5.81874 36.5478 -85.9514 -31.8352 96.0949 19.37 4.9003 103.283 0.58676 0.000331214 0.0646655 -3.55127 -1.34179 88.9718 -161.826 73.5983 158.522 -2.06806 -8.50452 -0.646671 9.29697 -19.1212 17.594 -34.1634 2.35371 76.1599 12.4608 71.0987 6.98959 -11.9766 -19.0695 1.19454 3.0685 -31.0194 -7.42397 
-18.8059 80.9413 -16.4777 40.9224 -20.8562 -26.0101 -70.1915 0 88.8779 138.978 70.7411 -55.9835 -10.0493 26.7073 7.47188 -156.365 30.8195 164.363 -136.109 68.9849 179.021 0.849414 -11.6472 -23.5976 -62.9753 66.9087 -52.4869 15.952 4.97868 -72.5407 0.420957 0.000575497 0.35866 -0.746279 6.11759 26.7314 -88.6476 -41.9618 106.03 23.9786 10.4484 111.863 0.58676 0.000331214 0.0646655 9.85282 2.61164 90.1053 -161.281 74.0131 156.249 -0.905503 -10.8636 -0.933297 8.73069 -18.308 18.0857 -42.1175 2.90785 79.6712 7.16888 60.6053 15.9192 -9.70005 -17.5322 1.27641 3.07085 -30.4321 -7.34692 
-11.9427 82.1438 -11.2091 40.9935 -22.7079 -30.5053 -70.1915 0 88.8779 138.237 72.9122 -59.1251 -9.23682 29.3078 5.29276 -154.297 31.1131 162.269 -138.478 69.8242 -179.425 0.853611 -12.1555 -18.8514 -54.0593 70.8664 -53.6725 16.6428 4.49948 -74.7055 0.420957 0.000575497 0.35866 -0.340594 6.05753 20.0137 -92.1815 -49.4737 108.837 23.8395 14.2365 118.756 0.58676 0.000331214 0.0646655 14.0771 4.74028 95.2845 -151.534 78.9467 139.692 -2.06472 -13.1 -1.11135 10.0639 -20.159 21.8174 -53.9288 1.10845 83.7623 5.28271 47.05 20.5365 -4.07699 -9.02672 1.02533 4.12216 -32.379 1.10947 
-4.38906 83.7061 -5.3332 41.7127 -22.5868 -32.3517 -70.1915 0 88.8779 130.792 75.1179 -54.0246 -6.21132 29.8704 2.82088 -149.878 30.2849 158.557 -137.112 69.5998 -178.52 0.678545 -14.3734 -18.2156 -58.12 70.7379 -48.635 17.7685 4.11797 -76.7636 0.420957 0.000575497 0.35866 -0.259172 5.16935 19.9165 -87.9481 -50.308 111.268 24.3186 15.6892 120.551 0.58676 0.000331214 0.0646655 13.8282 6.03428 100.235 -128.141 83.2751 112.033 -1.20722 -10.6885 -0.914727 15.3597 -25.7901 28.0483 -63.0768 3.128e-015 90 2.67967 34.8693 16.8545 0.135676 8.76124 -0.588159 5.97067 -31.994 16.3662 
3.08458 85.1945 0.715708 42.1665 -22.3743 -29.7609 -70.1915 0 88.8779 123.525 75.1556 -45.2744 -3.66722 28.4118 1.81844 -144.677 28.2962 157.871 -142.514 69.3237 -169.279 0.621024 -14.0972 -20.4764 -63.9398 66.6697 -49.064 18.1852 3.6022 -78.5547 0.420957 0.000575497 0.35866 -0.497246 5.35417 24.3356 -79.2292 -48.3932 109.177 28.083 15.3024 115.998 0.58676 0.000331214 0.0646655 10.2867 7.61042 101.313 -106.57 84.9156 93.2489 -4.05277 -13.228 -1.09773 11.5394 -21.7938 24.1508 -64.8927 6.70009 92.7038 1.98069 35.8259 16.7628 3.9156 20.826 -2.59514 2.53399 -19.255 -4.31895 
10.1956 85.9092 6.47068 43.3524 -21.9155 -26.0242 -70.1915 0 88.8779 123.031 72.6568 -43.0782 -2.18537 26.0203 1.35709 -139.101 25.6139 157.293 -144.864 68.1353 -160.872 0.532215 -13.621 -24.9812 -72.8559 58.3707 -51.6476 19.7659 3.13664 -80.7319 0.420957 0.000575497 0.35866 -1.06528 5.9928 32.6413 -73.3039 -44.3504 100.499 26.8018 9.5119 107.774 0.58676 0.000331214 0.0646655 2.28566 7.08059 99.9686 -65.1271 85.0238 52.0793 -2.29845 -7.27307 -0.495909 11.1365 -21.4951 19.0027 -57.7547 10.4689 90.5141 3.93582 52.8278 5.49778 0.860021 18.923 -1.55171 2.21997 -15.9949 -11.6552 
17.4823 86.3268 11.8678 45.0698 -21.0418 -24.3809 -70.1915 0 88.8779 122.629 69.6241 -43.8983 -0.13132 23.0058 1.91467 -139.725 23.9542 159.508 -147.436 66.5208 -156.36 0.499424 -13.0355 -29.5457 -81.0682 49.0578 -58.6221 21.3498 1.95215 -84.1208 0.420957 0.000575497 0.35866 -1.58666 6.31807 39.562 -71.4708 -41.9912 90.1592 23.6977 2.27017 95.0617 0.58676 0.000331214 0.0646655 -11.8499 4.47528 99.0995 -21.0406 77.7482 4.38804 -3.37743 -8.28174 -0.618809 12.298 -24.0865 10.8057 -44.456 8.41844 84.4665 11.0472 77.0611 -11.6468 -3.33432 13.1192 -0.0586169 2.05769 -12.718 -10.4968 
24.3387 86.5902 16.7595 43.9769 -20.7133 -25.7451 -70.1915 0 88.8779 120.597 67.9475 -43.2536 0.1797 21.2363 2.04579 -143.107 23.2829 162.038 -149.144 65.2393 -155.829 0.592138 -12.528 -30.312 -87.2524 44.5329 -68.1505 22.5039 0.260115 -89.2041 0.420957 0.000575497 0.35866 -1.67088 5.86946 43.1161 -70.4318 -41.5115 79.7544 21.8269 -4.07165 79.663 0.58676 0.000331214 0.0646655 -23.8266 2.94512 99.8178 -10.13 68.5047 -6.14754 -5.97404 -22.5873 -2.33797 8.37552 -17.7935 6.53052 -25.1019 5.36907 82.5996 161.177 80.5542 -174.794 -10.746 7.36316 1.63715 2.06733 -16.6348 1.10749 
31.1034 85.6407 21.6596 41.7427 -19.1365 -25.7713 -70.1915 0 88.8779 118.068 66.5352 -39.0793 -2.4705 18.9877 3.25589 -146.672 22.6741 164.395 -150.257 64.0622 -156.453 0.811518 -11.6159 -25.7467 -89.6548 45.8348 -79.6237 24.3081 -2.91667 -95.3562 0.420957 0.000575497 0.35866 -1.93611 6.6158 43.7219 -67.2959 -43.7718 66.8153 11.399 -4.52155 68.6566 0.58676 0.000331214 0.0646655 -29.2943 3.16126 99.637 -8.26666 63.8303 -11.0422 -3.84523 -21.7668 -2.11842 11.7116 -22.7428 13.6212 -3.25283 3.43807 80.9918 171.365 67.9881 169.43 -19.712 3.5358 3.05865 2.72753 -22.4899 -1.48066 
39.6474 85.6312 27.5541 43.1861 -16.533 -22.4388 -70.1915 0 88.8779 119.893 63.6962 -37.7016 -4.11071 15.7157 5.95486 -148.04 22.2043 168.17 -149.006 63.0893 -158.575 0.901181 -11.5551 -21.3403 -93.6869 48.183 -87.9031 23.9433 -5.7975 -102.114 0.420957 0.000575497 0.35866 -2.17306 7.30003 44.0859 -64.8768 -46.161 52.7984 5.61752 -2.57886 65.6289 0.58676 0.000331214 0.0646655 -39.5917 3.41151 95.5973 -6.03937 55.3118 -15.1268 -4.3519 -17.4891 -1.61712 13.079 -25.1104 10.9702 9.63286 -1.06757 79.8402 171.097 69.3984 171.587 -18.6945 0.199414 2.59095 2.54089 -21.9386 -6.85111 
49.1648 86.6929 33.6171 44.8493 -17.0513 -20.1002 -70.1915 0 88.8779 124.663 60.521 -38.3541 -5.08454 13.2255 6.80869 -146.602 20.4826 170.635 -144.061 60.9112 -162.993 1.0884 -9.48612 -16.2479 -97.4455 49.889 -91.2198 22.1539 -8.44801 -109.035 0.420957 0.000575497 0.35866 -2.2968 8.13631 42.4004 -62.1785 -49.8689 45.251 7.1763 -3.30543 65.5112 0.58676 0.000331214 0.0646655 -53.1611 4.21329 92.5042 -3.75849 42.3216 -14.9089 -8.64036 -5.17656 0.42605 12.6897 -25.7326 3.58847 14.6544 -3.70732 80.0528 160.19 81.0296 -169.541 -13.846 -0.859144 1.92087 2.11316 -24.4302 -14.9287 
58.8843 88.4582 40.6501 43.6762 -18.9278 -18.7501 -70.1915 0 88.8779 127.171 59.4316 -36.7198 -5.17837 12.113 7.94748 -145.029 19.6198 172.976 -140.898 59.7076 -164.571 1.12543 -8.52109 -14.2481 -97.6767 50.011 -87.5849 15.3891 -8.79707 -118.196 0.420957 0.000575497 0.35866 -2.43523 9.60843 39.4009 -64.4503 -51.7354 40.4611 6.05948 -2.7601 65.7732 0.58676 0.000331214 0.0646655 -62.6242 7.07471 89.2306 -2.47981 31.2502 -13.1752 -14.5792 13.1423 4.33595 8.66696 -17.7462 -3.25166 14.6755 -3.39659 77.2451 16.6594 79.4219 -14.9 -7.42483 -1.72487 1.12118 1.77971 -22.7841 -29.9148 
68.714 89.3015 48.0868 42.124 -19.8993 -20.6486 -70.1915 0 88.8779 126.575 59.9503 -36.1314 -4.29591 12.0808 9.64007 -146.269 19.7807 175.842 -141.201 59.8522 -162.707 1.18289 -8.38337 -16.8513 -91.0696 49.0768 -86.5264 14.7717 -8.62711 -118.816 0.420957 0.000575497 0.35866 -2.45928 9.92312 38.7657 -70.969 -47.9924 38.3618 6.51015 -2.76277 67.2317 0.58676 0.000331214 0.0646655 -63.5863 4.66952 85.72 -2.24718 36.2555 -10.8636 -10.9206 16.4055 4.12222 0.0459962 -2.33948 5.37028 12.306 -2.75921 75.9397 8.26947 66.2644 1.4427 -6.37816 -0.686108 1.00055 0.0334783 -27.2598 -39.0637 
77.767 88.7686 55.0267 42.8788 -21.0272 -23.363 -70.1915 0 88.8779 127.896 60.4403 -38.0756 -2.14955 13.8659 7.87621 -148.595 20.297 176.197 -142.096 60.4122 -162.233 1.02899 -10.4618 -21.1357 -82.512 49.498 -85.7525 16.5452 -5.80732 -107.499 0.420957 0.000575497 0.35866 -2.43194 8.53414 42.6067 -75.616 -40.6864 43.4138 6.99509 -2.69674 69.106 0.58676 0.000331214 0.0646655 -57.6096 1.59419 86.6311 -5.27006 58.1829 -2.69998 -11.8889 7.84196 2.88014 -1.44402 -0.497215 8.26029 7.41003 -2.33442 76.5801 6.14785 65.256 -1.8748 -6.80886 -3.61623 1.05776 1.55277 -24.3664 -29.2459 
87.547 88.7315 63.3087 43.086 -23.3964 -25.9672 -70.1915 0 88.8779 129.979 62.196 -40.2414 -0.153935 16.7648 5.41757 -150.903 21.6025 177.039 -146.136 61.7973 -160.606 0.598252 -12.9513 -25.7881 -78.1302 50.8988 -82.5514 14.8849 0.740442 -87.6331 0.420957 0.000575497 0.35866 -2.19 6.85771 46.2621 -78.2383 -34.6853 53.8564 8.4765 -2.84174 71.6148 0.58676 0.000331214 0.0646655 -48.3266 -0.0501043 89.8331 -24.7839 81.1401 17.353 -8.61451 8.07437 2.261 2.01124 -7.02442 9.77408 -4.09392 -0.167743 76.503 5.20841 64.3424 -3.37558 -9.82414 -10.9594 1.53207 1.99292 -15.4198 -16.0568 
